<svg width="13" height="12" viewBox="0 0 13 12" fill="none" xmlns="http://www.w3.org/2000/svg">
<path fill-rule="evenodd" clip-rule="evenodd" d="M11.7141 1.16028C11.0451 0.411852 10.1557 0 9.20959 0C8.26331 0 7.46923 0.411852 6.8 1.16028L6.37498 1.83916L5.95 1.16028C5.28097 0.411852 4.48664 0 3.54057 0C2.59453 0 1.70482 0.411852 1.03586 1.16028C-0.345288 2.70549 -0.345288 5.21963 1.03586 6.76424L5.98491 11.5207C6.06583 11.6115 6.16657 11.6672 6.27182 11.6886C6.30711 11.6964 6.34261 11.7 6.37817 11.7C6.51818 11.7 6.65841 11.6403 6.76504 11.5207L11.7141 6.76424C13.0953 5.21963 13.0953 2.70549 11.7141 1.16028Z" fill="#BCBFC2"/>
</svg>
