<svg width="18" height="18" viewBox="0 0 18 18" fill="none" xmlns="http://www.w3.org/2000/svg">
<path fill-rule="evenodd" clip-rule="evenodd" d="M17.1354 16.3951L12.846 11.9395C13.9489 10.6301 14.5532 8.98262 14.5532 7.26749C14.5532 3.26026 11.2889 0 7.2766 0C3.26435 0 0 3.26026 0 7.26749C0 11.2747 3.26435 14.535 7.2766 14.535C8.78286 14.535 10.2182 14.0812 11.4455 13.2199L15.7674 17.7093C15.9481 17.8967 16.1911 18 16.4514 18C16.6979 18 16.9317 17.9062 17.1092 17.7355C17.4863 17.3731 17.4983 16.7721 17.1354 16.3951ZM7.2766 1.89587C10.2423 1.89587 12.655 4.30552 12.655 7.26749C12.655 10.2295 10.2423 12.6391 7.2766 12.6391C4.31091 12.6391 1.89824 10.2295 1.89824 7.26749C1.89824 4.30552 4.31091 1.89587 7.2766 1.89587Z" fill="#BCBFC2"/>
</svg>
