<svg width="20" height="20" viewBox="0 0 20 20" fill="none" xmlns="http://www.w3.org/2000/svg">
<path fill-rule="evenodd" clip-rule="evenodd" d="M10 20C4.47715 20 0 15.5228 0 10C0 4.47715 4.47715 0 10 0C15.5228 0 20 4.47715 20 10C20 15.5228 15.5228 20 10 20ZM10 19C14.9706 19 19 14.9706 19 10C19 5.02944 14.9706 1 10 1C5.02944 1 1 5.02944 1 10C1 14.9706 5.02944 19 10 19Z" fill="#BCBFC2"/>
<path fill-rule="evenodd" clip-rule="evenodd" d="M8.2 12.3692V7.63035C8.2 7.44779 8.3532 7.2998 8.54218 7.2998C8.60779 7.2998 8.67202 7.31803 8.72722 7.3523L12.5428 9.72174C12.7018 9.82046 12.7478 10.025 12.6456 10.1785C12.6191 10.2184 12.584 10.2522 12.5428 10.2778L8.72722 12.6473C8.56825 12.746 8.35654 12.7015 8.25434 12.548C8.21886 12.4946 8.2 12.4326 8.2 12.3692Z" fill="#262D33"/>
</svg>
