<svg width="50" height="50" viewBox="0 0 50 50" fill="none" xmlns="http://www.w3.org/2000/svg">
<path opacity="0.4" fill-rule="evenodd" clip-rule="evenodd" d="M25 50C11.1929 50 0 38.8071 0 25C0 11.1929 11.1929 0 25 0C38.8071 0 50 11.1929 50 25C50 38.8071 38.8071 50 25 50ZM25 47.5C37.4264 47.5 47.5 37.4264 47.5 25C47.5 12.5736 37.4264 2.5 25 2.5C12.5736 2.5 2.5 12.5736 2.5 25C2.5 37.4264 12.5736 47.5 25 47.5Z" fill="white"/>
<path fill-rule="evenodd" clip-rule="evenodd" d="M20.4999 30.9235V19.0764C20.4999 18.62 20.8829 18.25 21.3554 18.25C21.5194 18.25 21.68 18.2956 21.818 18.3812L31.357 24.3048C31.7544 24.5516 31.8695 25.0629 31.614 25.4468C31.5477 25.5464 31.4601 25.631 31.357 25.6951L21.818 31.6187C21.4206 31.8654 20.8913 31.7543 20.6358 31.3704C20.5471 31.2371 20.4999 31.082 20.4999 30.9235Z" fill="white"/>
</svg>
